# xmcd
#
# Track frame offsets:
#	150
#	18252
#	29245
#	41300
#	64272
#	77795
#	92307
#	105025
#	116892
#	127392
#	141307
#	154672
#	167197
#	182567
#	195940
#	212927
#
# Disc length: 3003
#
# Revision: 1
# Processed by: cddbd v1.5.1PL0 Copyright (c) Steve Scherf et al.
# Submitted via: FreeRIP 2.92 
# Normalized: r0:DSETVAR1,TDELIM( - ),TSWAP
#
DISCID=d90bb910
DTITLE=Various Artist - Country Collection Volume 1
DYEAR=1900
DGENRE=Country
TTITLE0=Willie Nelson - Help Me Make It Through The Night
TTITLE1=Marty Robbins - Singing The Blues
TTITLE2=Tammy Wynette - There Goes My Everything
TTITLE3=Johnny Paycheck - The Outlaw's Prayer
TTITLE4=Tammy Wynette and George Jones - I Just Started Livin' Today
TTITLE5=Janie Fricks - Love Is Worth It All
TTITLE6=George Jones - Still Doin' Time
TTITLE7=Johnny Cash - I've Been To Gerogia On A Fast Train
TTITLE8=Willie Nelson - Blue Eyes Crying In The Rain
TTITLE9=Marty Robbins - All Round Cowboy
TTITLE10=Tammy Wynette - Cowboy's Don't Shoot Staight (Like They Used To)
TTITLE11=Charlie Rich - A Very Special Love Song
TTITLE12=Larry Gatlin and The Gatlin Brothers - Easy On The Eye
TTITLE13=Merle Haggard - To All The Girls I've Loved Before
TTITLE14=Crystal Gayle - Miss The Mississippi And You
TTITLE15=Johnny Cash and June Carter - Jackson
EXTD=
EXTT0=
EXTT1=
EXTT2=
EXTT3=
EXTT4=
EXTT5=
EXTT6=
EXTT7=
EXTT8=
EXTT9=
EXTT10=
EXTT11=
EXTT12=
EXTT13=
EXTT14=
EXTT15=
PLAYORDER=
